<svg width="1600" height="792" fill="none" xmlns="http://www.w3.org/2000/svg">
  <g clip-path="url(#a)">
    <path fill-rule="evenodd" clip-rule="evenodd" d="M151.183 791.973H1438.93v5.13H151.183v-5.13Z" fill="#E5E5E5"/>
    <path fill-rule="evenodd" clip-rule="evenodd" d="M173.786 625.414 1417.65 958.707l-1.32 4.955L172.458 630.369l1.328-4.955Z" fill="#E5E5E5"/>
    <path fill-rule="evenodd" clip-rule="evenodd" d="M172.458 958.707 1416.33 625.414l1.32 4.955L173.786 963.662l-1.328-4.955Z" fill="#E5E5E5"/>
    <path fill-rule="evenodd" clip-rule="evenodd" d="M236.163 1114.25 1351.38 470.38l2.57 4.443L238.728 1118.7l-2.565-4.45Z" fill="#E5E5E5"/>
    <path fill-rule="evenodd" clip-rule="evenodd" d="M470.897 1350.87 1114.77 235.645l4.44 2.565-643.87 1115.22-4.443-2.56Z" fill="#E5E5E5"/>
    <path fill-rule="evenodd" clip-rule="evenodd" d="M625.932 1415.81 959.225 171.94l4.955 1.328L630.887 1417.14l-4.955-1.33Z" fill="#E5E5E5"/>
    <path fill-rule="evenodd" clip-rule="evenodd" d="M792.49 1438.41V150.665h5.13V1438.41h-5.13Z" fill="#E5E5E5"/>
    <path fill-rule="evenodd" clip-rule="evenodd" d="M959.225 1417.14 625.931 173.269l4.956-1.328L964.18 1415.81l-4.955 1.33Z" fill="#E5E5E5"/>
    <path fill-rule="evenodd" clip-rule="evenodd" d="M1114.77 1353.43 470.897 238.21l4.443-2.565 643.87 1115.225-4.44 2.56Z" fill="#E5E5E5"/>
    <path fill-rule="evenodd" clip-rule="evenodd" d="M1248.53 1251.64 337.954 341.065l3.628-3.628 910.578 910.573-3.63 3.63Z" fill="#E5E5E5"/>
    <path fill-rule="evenodd" clip-rule="evenodd" d="M1351.38 1118.7 236.162 474.823l2.565-4.442L1353.95 1114.25l-2.57 4.45Z" fill="#E5E5E5"/>
    <path fill-rule="evenodd" clip-rule="evenodd" d="M800.943 953.178c88.464 0 160.178-71.715 160.178-160.178 0-88.464-71.714-160.178-160.178-160.178S640.765 704.536 640.765 793c0 88.463 71.714 160.178 160.178 160.178Zm0 5.134c91.299 0 165.312-74.013 165.312-165.312 0-91.3-74.013-165.312-165.312-165.312S635.631 701.7 635.631 793c0 91.299 74.013 165.312 165.312 165.312Z" fill="#E5E5E5"/>
    <path fill-rule="evenodd" clip-rule="evenodd" d="M800.943 1113.76c177.153 0 320.767-143.608 320.767-320.761 0-177.154-143.614-320.765-320.767-320.765-177.154 0-320.765 143.611-320.765 320.765 0 177.153 143.611 320.761 320.765 320.761Zm0 5.14c179.989 0 325.897-145.912 325.897-325.901S980.932 467.1 800.943 467.1 475.044 613.01 475.044 792.999 620.954 1118.9 800.943 1118.9Z" fill="#E5E5E5"/>
    <path fill-rule="evenodd" clip-rule="evenodd" d="M800.942 1274.36c265.848 0 481.368-215.51 481.368-481.361s-215.52-481.366-481.368-481.366c-265.851 0-481.365 215.515-481.365 481.366s215.514 481.361 481.365 481.361Zm0 5.14c268.688 0 486.498-217.81 486.498-486.501 0-268.687-217.81-486.5-486.498-486.5-268.686 0-486.5 217.813-486.5 486.5 0 268.691 217.814 486.501 486.5 486.501Z" fill="#E5E5E5"/>
    <path fill-rule="evenodd" clip-rule="evenodd" d="M794.943 1435.09c354.617 0 642.087-287.48 642.087-642.091 0-354.615-287.47-642.088-642.087-642.088-354.616 0-642.088 287.473-642.088 642.088 0 354.611 287.472 642.091 642.088 642.091Zm0 5.13c357.447 0 647.217-289.77 647.217-647.221s-289.77-647.222-647.217-647.222c-357.451 0-647.222 289.771-647.222 647.222 0 357.451 289.771 647.221 647.222 647.221Z" fill="#E5E5E5"/>
    <g clip-path="url(#b)">
      <mask id="c" fill="#fff">
        <path d="M792.942 331.312h461.998v468H792.942v-468Z"/>
      </mask>
      <path d="M914.943 676.748a172.537 172.537 0 0 1 50.45 127.42l-172.451-5.419 122.001-122.001Z" fill="#F7C325"/>
      <path fill-rule="evenodd" clip-rule="evenodd" d="M1242.41 355.035 795.488 801.954l-5.092-5.091 446.924-446.919 5.09 5.091Z" fill="#000"/>
    </g>
    <path d="M1254.94 799.312v2.4h2.4v-2.4h-2.4Zm-461.998 2.4h17.111v-4.799h-17.111v4.799Zm34.223 0h34.222v-4.799h-34.222v4.799Zm51.333 0h34.222v-4.799h-34.222v4.799Zm51.333 0h34.222v-4.799h-34.222v4.799Zm51.334 0h34.225v-4.799h-34.225v4.799Zm51.335 0h34.22v-4.799h-34.22v4.799Zm51.33 0h34.22v-4.799h-34.22v4.799Zm51.33 0h34.23v-4.799h-34.23v4.799Zm51.34 0h34.22v-4.799h-34.22v4.799Zm51.33 0h17.11v-4.799h-17.11v4.799Zm19.51-2.4v-17.333h-4.8v17.333h4.8Zm0-34.666v-34.667h-4.8v34.667h4.8Zm0-52v-34.667h-4.8v34.667h4.8Zm0-52v-34.667h-4.8v34.667h4.8Zm0-52v-34.667h-4.8v34.667h4.8Zm0-52v-34.667h-4.8v34.667h4.8Zm0-52v-34.667h-4.8v34.667h4.8Zm0-52v-34.667h-4.8v34.667h4.8Zm0-52v-34.667h-4.8v34.667h4.8Zm0-52v-17.334h-4.8v17.334h4.8Zm-2.4 450.666v4.8h4.8v-4.8h-4.8Zm-461.998 4.8h17.111v-9.599h-17.111v9.599Zm34.223 0h34.222v-9.599h-34.222v9.599Zm51.333 0h34.222v-9.599h-34.222v9.599Zm51.333 0h34.222v-9.599h-34.222v9.599Zm51.334 0h34.225v-9.599h-34.225v9.599Zm51.335 0h34.22v-9.599h-34.22v9.599Zm51.33 0h34.22v-9.599h-34.22v9.599Zm51.33 0h34.23v-9.599h-34.23v9.599Zm51.34 0h34.22v-9.599h-34.22v9.599Zm51.33 0h17.11v-9.599h-17.11v9.599Zm21.91-4.8v-17.333h-9.6v17.333h9.6Zm0-34.666v-34.667h-9.6v34.667h9.6Zm0-52v-34.667h-9.6v34.667h9.6Zm0-52v-34.667h-9.6v34.667h9.6Zm0-52v-34.667h-9.6v34.667h9.6Zm0-52v-34.667h-9.6v34.667h9.6Zm0-52v-34.667h-9.6v34.667h9.6Zm0-52v-34.667h-9.6v34.667h9.6Zm0-52v-34.667h-9.6v34.667h9.6Zm0-52v-17.334h-9.6v17.334h9.6Z" fill="#000" mask="url(#c)"/>
    <path d="M999.117 718.603c0-1.02.31-1.83.933-2.43.64-.62 1.42-.93 2.34-.93.92 0 1.7.31 2.34.93.64.6.96 1.4.96 2.4 0 1.02-.32 1.84-.96 2.46a3.2 3.2 0 0 1-2.31.93c-.92 0-1.7-.31-2.34-.93-.643-.62-.963-1.43-.963-2.43Zm1.533 0c0 .56.16 1.01.48 1.35.32.34.75.51 1.29.51.52 0 .93-.17 1.23-.51.32-.34.48-.79.48-1.35s-.16-1.01-.48-1.35c-.3-.36-.71-.54-1.23-.54-.54 0-.97.18-1.29.54-.32.34-.48.79-.48 1.35Zm-10.318 21.24c-.8 0-1.56-.09-2.28-.27-.72-.16-1.36-.42-1.92-.78-.54-.34-.97-.77-1.29-1.29-.32-.52-.48-1.13-.48-1.83 0-.56.16-1.04.48-1.44.32-.4.77-.6 1.35-.6.48 0 .86.12 1.14.36.28.24.42.62.42 1.14 0 .4-.1.73-.3.99-.2.26-.49.42-.87.48.28.4.71.73 1.29.99.6.26 1.28.39 2.04.39 1.38 0 2.38-.38 3-1.14.64-.74.96-1.77.96-3.09 0-1.28-.31-2.23-.93-2.85-.62-.62-1.62-.93-3-.93-.64 0-1.3.08-1.98.24-.66.16-1.23.37-1.71.63l-.93-.75.39-9.3h11.04v2.76h-9.24l-.18 4.92c.5-.18 1.05-.32 1.65-.42.62-.12 1.23-.18 1.83-.18 2.04 0 3.62.45 4.74 1.35 1.12.88 1.68 2.31 1.68 4.29 0 1.94-.61 3.48-1.83 4.62-1.2 1.14-2.89 1.71-5.07 1.71Zm-14.007-19.05h3.33v12.69h2.43v2.16h-2.43v4.08h-3.06v-4.08h-8.97v-2.1l8.7-12.75Zm-6.54 12.69h6.81v-9.99l-6.81 9.99Zm310.205-150.341-2.64 8.79c-.27.9-.48 1.65-.48 2.34 0 .96.51 1.47 1.59 1.47 2.25 0 4.47-3.93 5.13-6.45l1.71-6.15h3.27l-3.99 14.64c-1.29 4.77-3.33 7.5-8.16 7.5-2.85 0-4.83-1.23-4.83-3.39 0-1.29.72-2.22 1.89-2.22.96 0 1.41.63 1.41 1.41 0 .84-.39 1.41-1.11 1.65.51.57 1.44.81 2.46.81 2.73 0 4.26-1.92 5.34-5.55l1.56-5.22c-1.38 2.67-3.36 4.98-6.27 4.98-2.01 0-3.42-.99-3.42-2.91 0-.93.27-1.83.66-3.06l2.07-6.78h-2.22l.57-1.86h5.46Zm-315.705 1.859h-2.4l.6-1.86h5.1l-1.44 5.1c1.71-3.15 3.69-5.25 5.94-5.25 1.41 0 2.13.63 2.13 1.77 0 1.26-.66 2.64-2.16 2.64-.9 0-1.44-.45-1.44-1.26 0-.42.12-.81.33-1.14-2.01.12-4.38 3.78-5.28 7.05l-1.56 5.46h-3.3l3.48-12.51Z" fill="#000"/>
    <g filter="url(#d)">
      <path d="M1203 338c0-26.51 21.49-48 48-48s48 21.49 48 48-21.49 48-48 48-48-21.49-48-48Z" fill="#fff"/>
    </g>
    <path d="M1210.28 338.502c0-22.957 18.61-41.568 41.56-41.568 22.96 0 41.57 18.611 41.57 41.568 0 22.958-18.61 41.569-41.57 41.569-22.95 0-41.56-18.611-41.56-41.569Z" fill="#456DFF" stroke="#fff" stroke-width="13.127"/>
  </g>
  <defs>
    <clipPath id="a">
      <path fill="#fff" d="M0 0h1600v792H0z"/>
    </clipPath>
    <clipPath id="b">
      <path d="M792.942 331.312h461.998v468H792.942v-468Z" fill="#fff"/>
    </clipPath>
    <filter id="d" x="1142.84" y="232.022" width="216.331" height="216.331" filterUnits="userSpaceOnUse" color-interpolation-filters="sRGB">
      <feFlood flood-opacity="0" result="BackgroundImageFix"/>
      <feColorMatrix in="SourceAlpha" values="0 0 0 0 0 0 0 0 0 0 0 0 0 0 0 0 0 0 127 0" result="hardAlpha"/>
      <feOffset dy="2.188"/>
      <feGaussianBlur stdDeviation="30.083"/>
      <feColorMatrix values="0 0 0 0 0.270588 0 0 0 0 0.427451 0 0 0 0 1 0 0 0 0.7 0"/>
      <feBlend in2="BackgroundImageFix" result="effect1_dropShadow_3528_8329"/>
      <feBlend in="SourceGraphic" in2="effect1_dropShadow_3528_8329" result="shape"/>
    </filter>
  </defs>
</svg>
