<svg xmlns="http://www.w3.org/2000/svg" width="3109" height="766" fill="none" xmlns:v="https://vecta.io/nano"><style><![CDATA[.B{stroke-miterlimit:10}.C{stroke-width:1.791}.D{stroke-width:1.79}]]></style><g clip-path="url(#A)" stroke="#0c1841" class="B"><g class="C"><use href="#B"/><path d="M1464.7 412.532c49.42 0 89.48-40.06 89.48-89.477s-40.06-89.477-89.48-89.477-89.48 40.061-89.48 89.477 40.06 89.477 89.48 89.477z"/><path d="M1464.7 412.537V323.06m89.48-.004h-89.48l-63.26-63.262"/><path d="M1401.31 386.444l126.65-126.65"/><use href="#C"/><path d="M1314.74-5v238.742M1375.24-5v238.742M1434.5-5v238.742M1494.37-5v238.742M1554.25-5v238.742"/><path d="M1554.25 114.383h-359.27m359.27 119.356h-359.27m0-238.739v238.742"/><use href="#D"/><use href="#E"/><use href="#F"/><use href="#G"/><use href="#H"/><use href="#I"/><use href="#J"/><path d="M1226.01 770.958V591.861h-29.85v179.097h29.85z"/><path d="M1255.86 770.96V622.393h-29.85V770.96h29.85z"/><path d="M1285.69 770.983V651.567h-29.85v119.416h29.85z"/><use href="#K"/><path d="M1345.39 770.979v-59.734h-29.85v59.734h29.85z"/><path d="M1375.22 770.979v-29.868h-29.85v29.868h29.85z"/><use href="#L"/><path d="M1017.12 114.418H838.061v29.85h179.059v-29.85zM1017.1-4.93H479.688v29.849H1017.1V-4.93z"/><path d="M1017.1 24.902H570.454v29.85H1017.1v-29.85z"/><path d="M1017.12 54.755H659v29.849h358.12V54.755z"/><path d="M1017.1 84.6H748.385v29.85H1017.1V84.6zm0 59.609h-89.529v29.849h89.529v-29.849z"/><path d="M1017.12 174.005h-29.849v29.85h29.849v-29.85zM181.442 412.926h59.717v-59.681h-59.717v59.681z"/><path d="M121.765 412.947h59.716v-119.38h-59.716v119.38z"/><path d="M62.063 412.926h59.717V233.865H62.063v179.061z"/><path d="M2.382 412.926h59.717V174.184H2.382v238.742z"/><path d="M-57.296 412.947H2.421V114.506h-59.717v298.441z"/><path d="M241.105-4.874h-358.068v417.785h358.068V-4.874z"/><path d="M181.481 293.551V-4.818M121.78 233.87V-4.818M62.099 174.189V-4.818M2.421 114.49V-4.818"/><path d="M-57.266 54.804h298.37M2.421 114.488h238.688m-179.01 59.699h179.007m-119.308 59.678h119.308m-59.625 59.685h59.628m895.661-59.452V-4.161h-119.49v238.259h119.49z"/><path d="M1076.34-4.161l-59.22 59.215m118.77-59.215l-118.77 118.772m119.65-60.094l-119.65 119.649"/><use href="#M"/><path d="M1136.77 173.649l-60.07 60.075M658.997 412.786H181.495v119.488h477.502V412.786z"/><path d="M241.179 412.786l119.648 119.667M181.568 412.786l119.667 119.667m-.503-119.667l119.649 119.666M360.29 412.786l119.667 119.667M419.86 412.786l119.649 119.667M479.42 412.786l119.649 119.667m59.571 0L538.991 412.786m59.554 0l60.075 60.093m-477.303-.003l60.093 60.075"/><use href="#N"/><path d="M-116.963 532.396L2.686 412.729m-60.091 119.667L62.261 412.729M2.17 532.396l119.648-119.667M61.72 532.396l119.648-119.667M121.28 532.396l119.667-119.667m-60.093 119.667L300.502 412.73m-59.308 119.666l119.649-119.667m-60.36 119.669l60.075-60.075"/><use href="#O"/><path d="M599.443 233.739H479.544v59.681h119.899v-59.681zm178.919-59.678H658.463v59.681h119.899v-59.681zm-357.979 0h-119.9v59.681h119.9v-59.681z"/><use href="#P"/><path d="M599.443 114.398H479.544v59.681h119.899v-59.681zM420.382 84.531h29.581v59.717h29.455"/><path d="M420.382 203.946h29.581v-59.717h29.455m119.649.021h29.581v59.699h29.456"/><path d="M599.067 263.644h29.581v-59.717h29.456m-237.722.001h29.581v59.699h29.455"/><path d="M420.382 323.326h29.581v-59.699h29.455m-178.935 59.698h-59.072m59.072-119.432h-59.072m596.342 0h-59.09M300.483 84.461h-59.072m596.65 209.019V144.25"/><path d="M538.636 412.782l31.085-30.745a100.02 100.02 0 0 1 70.353-28.918h35.973a100.11 100.11 0 0 0 71.266-29.832 100.16 100.16 0 0 1 71.32-29.831h36.869a99.95 99.95 0 0 0 70.819-29.331l1.038-1.056c18.766-18.784 44.228-29.33 70.765-29.33h18.946"/><path d="M957.424 242.426v171.559M897.74 284.128v128.53m-59.805-119.179v119.309m-59.558-110.663v111.161m-59.699-69.599v68.974M659 353.143v59.52m-59.684-50.854v50.979"/><use href="#Q"/><path d="M539.959 591.861h118.664v-29.85H539.959v29.85z"/><path d="M539.959 621.714h118.664v-29.85H539.959v29.85z"/><use href="#R"/><path d="M539.959 681.391h118.664v-29.849H539.959v29.849z"/><path d="M539.959 711.245h118.664v-29.85H539.959v29.85zm0 29.866h118.664v-29.85H539.959v29.85z"/><path d="M539.959 770.943h118.664v-29.85H539.959v29.85z"/><use href="#S"/><path d="M1136.84 54.678h58.12V24.828h-58.12v29.85z"/><path d="M1136.84 84.531h58.12V54.681h-58.12v29.85z"/><use href="#T"/><use href="#U"/><use href="#V"/><path d="M1136.84 203.928h58.12v-29.85h-58.12v29.85z"/><path d="M1136.84 233.76h58.12v-29.849h-58.12v29.849z"/></g><g class="D"><path d="M351.772 660.431l17.421-17.457m42.33.193l26.34 26.339"/></g><path d="M241.321 652.099c33.139 0 60.003-26.864 60.003-60.003s-26.864-60.004-60.003-60.004-60.004 26.865-60.004 60.004 26.865 60.003 60.004 60.003z" class="C"/><path d="M283.877 634.049l26.339 26.34" class="D"/><g class="C"><path d="M390.371 651.596c16.505 0 29.885-13.38 29.885-29.885s-13.38-29.885-29.885-29.885-29.886 13.38-29.886 29.885 13.38 29.885 29.886 29.885zm89.869-58.887c16.505 0 29.885-13.38 29.885-29.885s-13.38-29.886-29.885-29.886-29.886 13.381-29.886 29.886 13.381 29.885 29.886 29.885zM240.672 770.994c16.506 0 29.886-13.38 29.886-29.885s-13.38-29.886-29.886-29.886-29.885 13.38-29.885 29.886 13.38 29.885 29.885 29.885zm90.163-59.769c16.505 0 29.885-13.38 29.885-29.885s-13.38-29.886-29.885-29.886-29.886 13.38-29.886 29.886 13.38 29.885 29.886 29.885zm149.409 59.755c32.981 0 59.717-26.736 59.717-59.717s-26.736-59.717-59.717-59.717-59.717 26.736-59.717 59.717 26.736 59.717 59.717 59.717z"/><path d="M539.619 532.162H181.568V770.654H539.619V532.162Z"/><path d="M241.319 652.099v59.126m238.92-118.539v58.858"/><use href="#W"/><path d="M1554.16 651.567h-59.68v59.681h59.68v-59.681zm0-59.706h-59.68v59.681h59.68v-59.681z"/><path d="M1554.16 532.184h-59.68v59.681h59.68v-59.681z"/><path d="M1554.16 472.505h-59.68v59.681h59.68v-59.681zm-59.68 238.74h-59.68v59.681h59.68v-59.681z"/><path d="M1494.48 651.567h-59.68v59.681h59.68v-59.681zm0-59.706h-59.68v59.681h59.68v-59.681z"/><path d="M1494.48 532.184h-59.68v59.681h59.68v-59.681z"/><path d="M1494.48 472.505h-59.68v59.681h59.68v-59.681zm-59.68 238.74h-59.68v59.681h59.68v-59.681z"/><path d="M1434.8 651.567h-59.68v59.681h59.68v-59.681zm0-59.706h-59.68v59.681h59.68v-59.681z"/><path d="M1434.8 532.184h-59.68v59.681h59.68v-59.681z"/><path d="M1434.8 472.505h-59.68v59.681h59.68v-59.681z"/><use href="#X"/><path d="M1494.48 412.8h-59.68v59.681h59.68V412.8z"/><path d="M1434.8 412.8h-59.68v59.681h59.68V412.8zm-417.68-.014H658.979v358.14h358.141v-358.14z"/><path d="M838.057 412.786c98.896 0 179.083 80.166 179.083 179.079 0 98.896-80.169 179.079-179.083 179.079-98.895 0-179.078-80.166-179.078-179.079 0-98.895 80.165-179.079 179.078-179.079z"/><path d="M838.061 412.786v179.079m0-.004l46.341 172.955"/><use href="#Y"/><use href="#Y"/><path d="M711.194 465l253.479 253.479m-96.779-303.203v176.285"/><path d="M778.359 531.68v119.684m-29.85-149.726v179.777m-29.847-209.609v239.44m-29.831-219.065v198.687m119.377-129.531v60.379m89.532-198.725v168.568m29.831-154.816v154.816m-59.677 29.525v81.956m29.846-51.459v108.511m29.831-78.358v65.25m29.853-288.607v133.185m29.829-99.003v99.003M-116.94 770.942c59.698 0 60.271-237.99 149.247-237.99s89.53 237.99 149.265 237.99M32.303 532.952v238.044"/><path d="M62.134 543.445v227.55m29.817-187.779v187.781m29.829-106.49v106.487m29.813-25.098V771M2.435 543.445v227.55"/><path d="M181.568 532.4h-298.531v238.258h298.531V532.4zm904.012-8.953l-68.41 68.401m358.07-358.109l-68.42 68.419m-80.73 170.341c16.48 0 29.85-13.365 29.85-29.85s-13.37-29.849-29.85-29.849c-16.49 0-29.85 13.364-29.85 29.849s13.36 29.85 29.85 29.85z"/><use href="#Z"/><use href="#a"/><path d="M1106.69 532.204c16.48 0 29.85-13.364 29.85-29.849s-13.37-29.85-29.85-29.85c-16.49 0-29.85 13.364-29.85 29.85s13.36 29.849 29.85 29.849zM1285.77 412.8c16.48 0 29.85-13.364 29.85-29.849s-13.37-29.85-29.85-29.85c-16.49 0-29.85 13.364-29.85 29.85s13.36 29.849 29.85 29.849z"/><path d="M1226.09 412.8c16.48 0 29.85-13.364 29.85-29.849s-13.37-29.85-29.85-29.85c-16.49 0-29.85 13.364-29.85 29.85s13.36 29.849 29.85 29.849zm59.66-59.678c16.48 0 29.84-13.364 29.84-29.849s-13.36-29.85-29.84-29.85c-16.49 0-29.85 13.365-29.85 29.85s13.36 29.849 29.85 29.849z"/><path d="M1226.09 353.122c16.48 0 29.85-13.364 29.85-29.85s-13.37-29.849-29.85-29.849c-16.49 0-29.85 13.364-29.85 29.849s13.36 29.85 29.85 29.85zm-59.7 59.56c16.48 0 29.85-13.364 29.85-29.85s-13.37-29.849-29.85-29.849c-16.49 0-29.85 13.364-29.85 29.849s13.36 29.85 29.85 29.85z"/><path d="M1166.39 472.38c16.48 0 29.85-13.364 29.85-29.849s-13.37-29.85-29.85-29.85c-16.49 0-29.85 13.364-29.85 29.85s13.36 29.849 29.85 29.849z"/><use href="#b"/><path d="M1196.06 233.739l-178.89 178.9m358.02.252l-178.9 178.9m2029.43-358.192h-178.96v178.954h178.96V233.599z"/><path d="M3136.24 412.532c49.42 0 89.48-40.06 89.48-89.477s-40.06-89.477-89.48-89.477-89.48 40.06-89.48 89.477 40.06 89.477 89.48 89.477z"/><path d="M3225.72 323.056h-89.48l-63.26-63.262"/><path d="M3072.85 386.444l126.65-126.65M2926.4-5v238.742M2986.28-5v238.742M3046.78-5v238.742"/><path d="M3106.04-5v238.742"/><path d="M3225.79 114.383h-359.27m359.27 119.356h-359.27m0-238.739v238.742"/><path d="M3225.79-5h-28.6c-82.58 0-113.45 30.405-150.73 119.38-36.49 87.113-68.35 119.38-151.36 119.38h-28.6m-148.01 537.218v-29.867h-29.85v29.867h29.85z"/><use href="#c"/><path d="M2778.17 770.961v-89.549h-29.85v89.549h29.85z"/><path d="M2808.02 770.983V651.567h-29.85v119.416h29.85z"/><path d="M2837.87 770.96V622.393h-29.85V770.96h29.85z"/><path d="M2867.7 770.958V591.861h-29.85v179.097h29.85z"/><path d="M2897.55 770.958V591.861h-29.85v179.097h29.85z"/><path d="M2927.4 770.96V622.393h-29.85V770.96h29.85z"/><path d="M2957.23 770.982V651.567h-29.85v119.415h29.85z"/><path d="M2987.08 770.96v-89.548h-29.85v89.548h29.85z"/><path d="M3016.93 770.979v-59.735h-29.85v59.735h29.85z"/><path d="M3046.76 770.979v-29.868h-29.85v29.868h29.85z"/><path d="M3046.73 591.861h-358.07v179.115h358.07V591.861zm-358.07-477.443H2509.6v29.85h179.06v-29.85zm-.02-119.348h-537.41v29.85h537.41V-4.93z"/><path d="M2688.64 24.902h-446.65v29.85h446.65v-29.85z"/><path d="M2688.66 54.754h-358.12v29.85h358.12v-29.85z"/><path d="M2688.64 84.601h-268.72v29.85h268.72v-29.85zm0 59.607h-89.53v29.85h89.53v-29.85z"/><path d="M2688.66 174.005h-29.85v29.85h29.85v-29.85zm-835.68 238.921h59.72v-59.681h-59.72v59.681z"/><path d="M1793.3 412.946h59.72v-119.38h-59.72v119.38z"/><path d="M1733.6 412.926h59.72V233.865h-59.72v179.061z"/><path d="M1673.92 412.926h59.72V174.184h-59.72v238.742z"/><path d="M1614.24 412.946h59.72V114.505h-59.72v298.441z"/><path d="M1554.54 412.926h59.72V54.804h-59.72v358.122z"/><path d="M1912.64-4.874h-358.07v417.785h358.07V-4.874z"/><path d="M1853.02 293.552V-4.818m-59.7 238.688V-4.818m-59.68 179.007V-4.818m-59.68 119.309V-4.818m-59.7 59.627V-4.818"/><path d="M1614.27 54.804h298.37m-238.68 59.684h238.69m-179.01 59.699h179m-119.31 59.678h119.31m-59.62 59.685h59.63m895.65-59.452V-4.161h-119.48v238.259h119.48z"/><path d="M2747.88-4.161l-59.22 59.216"/><path d="M2807.43-4.161L2688.66 114.61m119.65-60.093l-119.65 119.649m0 59.576l119.65-119.667m0 59.573l-60.08 60.075m-417.7 179.063h-477.5v119.488h477.5V412.786z"/><use href="#d"/><path d="M1853.11 412.786l119.66 119.667m-.5-119.667l119.65 119.666m-60.09-119.666l119.66 119.667m-60.09-119.667l119.65 119.667m-60.09-119.667l119.65 119.667m59.57 0l-119.65-119.667m59.55 0l60.08 60.093m-477.3-.003l60.09 60.075"/><path d="M2032.09 412.912h-477.52v119.487h477.52V412.912z"/><path d="M1554.57 532.396l119.65-119.666m-60.09 119.666l119.67-119.667m-60.09 119.667l119.65-119.667m-60.1 119.667l119.65-119.666m-60.09 119.666l119.66-119.667m-60.09 119.667l119.65-119.667m-59.31 119.667l119.65-119.667m-60.36 119.669l60.08-60.075m-477.47.003l60.07-60.093m477.22-118.788h-119.9v59.681h119.9v-59.681zm179.06-59.706h-119.9v59.681h119.9v-59.681zm178.92-59.678H2330v59.681h119.9v-59.681zm-357.98 0h-119.9v59.681h119.9v-59.681zm0-119.383h-119.9v59.681h119.9V54.678zm179.06 59.72h-119.9v59.681h119.9v-59.681z"/><path d="M2091.92 84.531h29.58v59.716h29.46"/><path d="M2091.92 203.946h29.58v-59.717h29.46m119.65.021h29.58v59.699h29.45"/><path d="M2270.61 263.644h29.58v-59.717h29.45m-237.72.001h29.58v59.699h29.46"/><path d="M2091.92 323.326h29.58v-59.699h29.46m-178.94 59.698h-59.07m59.07-119.433h-59.07m596.34.001h-59.09M1972.02 84.46h-59.07m596.65 209.02V144.25"/><path d="M2210.17 412.782l31.09-30.745c18.73-18.533 44.01-28.918 70.35-28.918h35.98c26.78 0 52.46-10.762 71.26-29.832a100.17 100.17 0 0 1 71.32-29.832h36.87a99.96 99.96 0 0 0 70.82-29.33l1.04-1.056c18.76-18.784 44.23-29.33 70.76-29.33h18.95"/><path d="M2628.96 242.426v171.559m-59.68-129.857v128.53m-59.81-119.179v119.309m-59.55-110.663v111.161m-59.71-69.599v68.974m-59.67-59.518v59.52m-59.69-50.854v50.979"/><use href="#e"/><path d="M2211.5 591.861h118.66v-29.85H2211.5v29.85z"/><path d="M2211.5 621.714h118.66v-29.85H2211.5v29.85z"/><path d="M2211.5 651.546h118.66v-29.85H2211.5v29.85z"/><use href="#f"/><path d="M2211.5 711.244h118.66v-29.849H2211.5v29.849zm0 29.867h118.66v-29.85H2211.5v29.85z"/><path d="M2211.5 770.943h118.66v-29.85H2211.5v29.85zm596.88-746.09h58.12V-4.996h-58.12v29.849z"/><path d="M2808.38 54.677h58.12v-29.85h-58.12v29.85z"/><path d="M2808.38 84.531h58.12v-29.85h-58.12v29.85z"/><path d="M2808.38 114.383h58.12V84.534h-58.12v29.849z"/><path d="M2808.38 144.209h58.12v-29.85h-58.12v29.85z"/><path d="M2808.38 174.061h58.12v-29.85h-58.12v29.85zm0 29.866h58.12v-29.849h-58.12v29.849z"/><path d="M2808.38 233.76h58.12v-29.849h-58.12v29.849z"/></g><g class="D"><path d="M2023.31 660.431l17.42-17.457m42.33.193l26.34 26.339"/></g><path d="M1912.86 652.099c33.14 0 60-26.864 60-60.003s-26.86-60.004-60-60.004-60 26.865-60 60.004 26.86 60.003 60 60.003z" class="C"/><path d="M1955.42 634.049l26.34 26.339" class="D"/><g class="C"><path d="M2061.91 651.596c16.5 0 29.88-13.38 29.88-29.885s-13.38-29.885-29.88-29.885c-16.51 0-29.89 13.38-29.89 29.885s13.38 29.885 29.89 29.885zm89.87-58.887c16.5 0 29.88-13.38 29.88-29.885s-13.38-29.886-29.88-29.886c-16.51 0-29.89 13.381-29.89 29.886s13.38 29.885 29.89 29.885z"/><use href="#g"/><path d="M2002.37 711.225c16.51 0 29.89-13.38 29.89-29.886s-13.38-29.885-29.89-29.885c-16.5 0-29.88 13.38-29.88 29.885s13.38 29.886 29.88 29.886zm149.41 59.754c32.98 0 59.72-26.736 59.72-59.716s-26.74-59.717-59.72-59.717-59.71 26.736-59.71 59.717 26.73 59.716 59.71 59.716z"/><path d="M2211.16 532.162h-358.05v238.492h358.05V532.162z"/><path d="M1912.86 652.099v59.125m238.92-118.538v58.858m1014.24 59.7h-59.68v59.681h59.68v-59.681z"/><use href="#h"/><path d="M3166.02 591.861h-59.69v59.681h59.69v-59.681z"/><path d="M3166.02 532.184h-59.68v59.681h59.68v-59.681z"/><path d="M3166.02 472.505h-59.69v59.682h59.69v-59.682zm-59.68 238.739h-59.68v59.681h59.68v-59.681z"/><path d="M3106.34 651.567h-59.68v59.681h59.68v-59.681zm0-59.706h-59.68v59.681h59.68v-59.681z"/><path d="M3106.34 532.184h-59.68v59.681h59.68v-59.681z"/><path d="M3106.34 472.505h-59.68v59.681h59.68v-59.681zm59.68-59.705h-59.69v59.681h59.69V412.8z"/><path d="M3106.34 412.799h-59.68v59.681h59.68v-59.681zm-417.68-.013h-358.14v358.14h358.14v-358.14z"/><path d="M2509.59 412.786c98.9 0 179.08 80.166 179.08 179.079 0 98.895-80.16 179.079-179.08 179.079-98.89 0-179.07-80.166-179.07-179.079 0-98.895 80.16-179.079 179.07-179.079z"/><path d="M2509.6 412.786v179.079m0-.004l46.34 172.955"/><use href="#i"/><use href="#i"/><path d="M2382.73 465l253.48 253.479m-96.78-303.203v176.285"/><path d="M2449.9 531.679v119.685m-29.85-149.726v179.777m-29.85-209.609v239.44m-29.83-219.065v198.686m119.38-129.53v60.379m89.53-198.725v168.568m29.83-154.817v154.816m-59.68 29.526v81.956m29.85-51.46v108.511m29.83-78.357v65.25m29.85-288.607v133.185m29.83-99.003v99.003m-1104.2 179.38c59.7 0 60.28-237.99 149.25-237.99 88.98 0 89.53 237.99 149.27 237.99m-149.27-237.99v238.044"/><path d="M1733.67 543.445v227.55m29.82-187.779v187.781m29.83-106.491v106.488m29.81-25.098V771m-149.16-227.555v227.55m-29.85-187.779v187.781m-29.86-106.49v106.487m-29.87-25.098V771"/><path d="M1853.1 532.4h-298.53v238.258h298.53V532.4zm904.01-8.953l-68.4 68.401m358.07-358.109l-68.42 68.419m-80.74 170.34c16.49 0 29.85-13.364 29.85-29.849s-13.36-29.85-29.85-29.85c-16.48 0-29.84 13.365-29.84 29.85s13.36 29.849 29.84 29.849z"/><use href="#j"/><path d="M2778.24 472.499c16.49 0 29.85-13.364 29.85-29.849s-13.36-29.85-29.85-29.85c-16.48 0-29.85 13.364-29.85 29.85s13.37 29.849 29.85 29.849z"/><use href="#k"/><path d="M2957.3 412.8c16.49 0 29.85-13.364 29.85-29.849s-13.36-29.85-29.85-29.85c-16.48 0-29.84 13.364-29.84 29.85s13.36 29.849 29.84 29.849z"/><use href="#l"/><path d="M2957.28 353.122c16.49 0 29.85-13.364 29.85-29.849s-13.36-29.85-29.85-29.85c-16.48 0-29.85 13.365-29.85 29.85s13.37 29.849 29.85 29.849z"/><path d="M2897.62 353.122c16.49 0 29.85-13.364 29.85-29.85s-13.36-29.849-29.85-29.849c-16.48 0-29.84 13.364-29.84 29.849s13.36 29.85 29.84 29.85zm-59.7 59.559c16.49 0 29.85-13.364 29.85-29.849s-13.36-29.85-29.85-29.85c-16.48 0-29.85 13.364-29.85 29.85s13.37 29.849 29.85 29.849z"/><path d="M2837.92 472.38c16.49 0 29.85-13.365 29.85-29.85s-13.36-29.849-29.85-29.849c-16.48 0-29.85 13.364-29.85 29.849s13.37 29.85 29.85 29.85z"/><path d="M3046.78 233.739h-358.07v358.122h358.07V233.739z"/><path d="M2867.59 233.739l-178.88 178.9m358.02.252l-178.9 178.9"/></g></g><defs><clipPath id="A"><path fill="#fff" d="M0 0h3109v766H0z"/></clipPath><path id="B" d="M1554.18 233.599h-178.96v178.954h178.96V233.599z"/><path id="C" d="M1254.86-5v238.742"/><path id="D" d="M1554.25-5h-28.6c-82.58 0-113.45 30.405-150.73 119.38-36.49 87.113-68.35 119.38-151.36 119.38h-28.6"/><path id="E" d="M1046.95 770.979v-29.868h-29.85v29.868h29.85z"/><path id="F" d="M1076.8 770.979v-59.734h-29.85v59.734h29.85z"/><path id="G" d="M1106.63 770.961v-89.549h-29.85v89.549h29.85z"/><path id="H" d="M1136.48 770.983V651.567h-29.85v119.416h29.85z"/><path id="I" d="M1166.33 770.96V622.393h-29.85V770.96h29.85z"/><path id="J" d="M1196.16 770.958V591.861h-29.85v179.097h29.85z"/><path id="K" d="M1315.55 770.96v-89.548h-29.85v89.548h29.85z"/><path id="L" d="M1375.19 591.861h-358.07v179.115h358.07V591.861z"/><path id="M" d="M1017.12 233.742l119.65-119.667"/><path id="N" d="M360.557 412.912h-477.52v119.487h477.52V412.912z"/><path id="O" d="M420.383 293.445h-119.9v59.681h119.9v-59.681z"/><path id="P" d="M420.383 54.678h-119.9v59.681h119.9V54.678z"/><path id="Q" d="M539.959 562.015h118.664v-29.85H539.959v29.85z"/><path id="R" d="M539.959 651.546h118.664v-29.849H539.959v29.849z"/><path id="S" d="M1136.84 24.853h58.12V-4.996h-58.12v29.849z"/><path id="T" d="M1136.84 114.383h58.12V84.534h-58.12v29.849z"/><path id="U" d="M1136.84 144.209h58.12v-29.85h-58.12v29.85z"/><path id="V" d="M1136.84 174.061h58.12v-29.849h-58.12v29.849z"/><path id="W" d="M1554.16 711.245h-59.68v59.681h59.68v-59.681z"/><path id="X" d="M1554.16 412.8h-59.68v59.681h59.68V412.8z"/><path id="Y" d="M1017.12 591.861H838.06L711.446 718.475"/><path id="Z" d="M1166.39 532.058c16.48 0 29.85-13.364 29.85-29.85s-13.37-29.849-29.85-29.849c-16.49 0-29.85 13.364-29.85 29.849s13.36 29.85 29.85 29.85z"/><path id="a" d="M1106.71 472.499c16.48 0 29.85-13.364 29.85-29.849s-13.37-29.85-29.85-29.85c-16.49 0-29.85 13.364-29.85 29.85s13.36 29.849 29.85 29.849z"/><path id="b" d="M1375.24 233.739h-358.07v358.122h358.07V233.739z"/><path id="c" d="M2748.34 770.979v-59.735h-29.85v59.735h29.85z"/><path id="d" d="M1912.72 412.786l119.65 119.667"/><path id="e" d="M2211.5 562.015h118.66v-29.85H2211.5v29.85z"/><path id="f" d="M2211.5 681.391h118.66v-29.849H2211.5v29.849z"/><path id="g" d="M1912.21 770.994c16.51 0 29.89-13.38 29.89-29.886s-13.38-29.885-29.89-29.885c-16.5 0-29.88 13.38-29.88 29.885s13.38 29.886 29.88 29.886z"/><path id="h" d="M3166.02 651.567h-59.69v59.681h59.69v-59.681z"/><path id="i" d="M2688.66 591.861H2509.6L2382.98 718.475"/><path id="j" d="M2837.92 532.057c16.49 0 29.85-13.364 29.85-29.849s-13.36-29.85-29.85-29.85c-16.48 0-29.85 13.364-29.85 29.85s13.37 29.849 29.85 29.849z"/><path id="k" d="M2778.22 532.204c16.49 0 29.85-13.364 29.85-29.849s-13.36-29.85-29.85-29.85c-16.48 0-29.84 13.364-29.84 29.85s13.36 29.849 29.84 29.849z"/><path id="l" d="M2897.62 412.8c16.49 0 29.85-13.364 29.85-29.85s-13.36-29.849-29.85-29.849c-16.48 0-29.84 13.364-29.84 29.849s13.36 29.85 29.84 29.85z"/></defs></svg>
